:SAMPLES-PER-SECOND 30
:FULLY-SPECIFIED
:DEGREES
480
root  0.635459 34.0823 20.4504 3.97777 48.1476 -1.50034
LeftUpLeg  -7.98099 4.35788 6.1467
LeftLeg  12.6921 0.990414 0.155569
LeftFoot  -0.102683 -0.00571282 -0.0298165
LeftToes  -21.562 1.92152e-006 4.03786e-008
Spine  1.47729 1.81157 0.757205
Spine1  2.66912 3.55127 1.69187
RightShoulder  0.075596 5.09197 7.22578
RightArm  -31.8952 -15.0753 72.095
RightForeArm  30.5105 17.7195 3.22332
RightHand  1.14682 -12.6844 -9.91562
LeftShoulder1  0.0469552 1.01125 -10.6802
LeftArm  -13.3176 11.8962 -70.113
LeftForeArm  27.4716 -15.1267 -2.72698
LeftHand  0.1933 5.50291 3.4934
HEad  -9.22721 28.6801 -7.53256
RightUpLeg  -7.14675 -9.08487 -3.27669
RightLeg  10.5592 -10.2286 -1.2229
RightFoot  1.32615 0.00768194 -0.193427
RightToes  -32 -0.157933 -0.265624
481
root  0.560958 34.0816 20.5308 3.98998 48.8222 -1.52827
LeftUpLeg  -8.17652 4.17412 6.35169
LeftLeg  12.7069 0.566294 0.0884707
LeftFoot  0.101823 -0.00597478 -0.0257455
LeftToes  -21.9432 1.92152e-006 4.03786e-008
Spine  1.49244 1.82773 0.846667
Spine1  2.70472 3.60473 1.8506
RightShoulder  0.0770306 5.03369 7.30537
RightArm  -31.3187 -14.6525 72.3742
RightForeArm  30.5218 17.9033 3.25906
RightHand  1.13374 -12.6588 -9.81958
LeftShoulder1  0.0469552 1.02711 -10.6296
LeftArm  -13.5459 12.1672 -70.302
LeftForeArm  27.7197 -14.8579 -2.67618
LeftHand  0.193935 5.54674 3.56944
HEad  -9.477 28.5114 -7.75908
RightUpLeg  -7.00764 -9.32327 -3.06455
RightLeg  10.4178 -10.6431 -1.24535
RightFoot  1.17687 0.00623156 -0.172536
RightToes  -31.7851 -0.156027 -0.263805
482
root  0.480857 34.0811 20.5936 4.06007 49.3473 -1.52641
LeftUpLeg  -8.357 3.92206 6.51212
LeftLeg  12.6176 0.340552 0.0520835
LeftFoot  0.354161 -0.00607356 -0.0242104
LeftToes  -22.2992 1.92152e-006 4.03786e-008
Spine  1.51632 1.88389 0.920038
Spine1  2.76019 3.73399 1.98179
RightShoulder  0.0781647 5.04184 7.36521
RightArm  -30.9209 -14.3595 72.6069
RightForeArm  30.5473 18.0346 3.28463
RightHand  1.12408 -12.5928 -9.78626
LeftShoulder1  0.0469552 0.984949 -10.6117
LeftArm  -13.696 12.4222 -70.4602
LeftForeArm  27.8252 -14.6584 -2.63859
LeftHand  0.194498 5.57316 3.61992
HEad  -9.85693 28.3221 -7.99167
RightUpLeg  -7.01963 -9.4133 -2.87329
RightLeg  10.4039 -11.0589 -1.29065
RightFoot  1.01057 0.00462658 -0.146952
RightToes  -31.5847 -0.154006 -0.261864
483
root  0.413664 34.0811 20.6567 4.11047 49.9254 -1.51951
LeftUpLeg  -8.55514 3.77028 6.65943
LeftLeg  12.6248 -0.0323698 -0.00655822
LeftFoot  0.537825 -0.00602043 -0.025036
LeftToes  -22.5131 1.92152e-006 4.03786e-008
Spine  1.54331 1.90338 0.986982
Spine1  2.82288 3.78825 2.09846
RightShoulder  0.0792673 5.02679 7.43919
RightArm  -30.5577 -14.1847 72.7673
RightForeArm  30.5175 18.0751 3.29257
RightHand  1.11513 -12.5785 -9.7173
LeftShoulder1  0.0469552 0.954767 -10.5674
LeftArm  -13.781 12.7133 -70.6547
LeftForeArm  27.8553 -14.5444 -2.61716
LeftHand  0.194278 5.65576 3.64508
HEad  -10.3022 28.1249 -8.07038
RightUpLeg  -6.99475 -9.60593 -2.70302
RightLeg  10.4027 -11.4352 -1.33369
RightFoot  0.849276 0.00368816 -0.119977
RightToes  -31.4162 -0.152048 -0.259975
484
root  0.353757 34.0808 20.7197 4.16025 50.5691 -1.55153
LeftUpLeg  -8.72328 3.58084 6.82327
LeftLeg  12.4841 -0.432661 -0.0684447
LeftFoot  0.796089 -0.00567479 -0.0304075
LeftToes  -22.8382 1.92152e-006 4.03786e-008
Spine  1.56438 1.87818 1.05662
Spine1  2.87448 3.75095 2.21893
RightShoulder  0.0805923 4.91613 7.54223
RightArm  -30.1854 -14.0829 72.8362
RightForeArm  30.6077 18.0377 3.28521
RightHand  1.11514 -12.6112 -9.69112
LeftShoulder1  0.0469552 0.963183 -10.495
LeftArm  -13.7941 13.0234 -70.904
LeftForeArm  27.8099 -14.5152 -2.61171
LeftHand  0.19453 5.67693 3.63537
HEad  -10.7078 27.9308 -8.03142
RightUpLeg  -7.00901 -9.82729 -2.51313
RightLeg  10.462 -11.8373 -1.39219
RightFoot  0.642507 0.00305014 -0.0822292
RightToes  -31.0081 -0.150328 -0.258312
485
root  0.300162 34.0794 20.7791 4.17804 51.1789 -1.61394
LeftUpLeg  -8.86441 3.40076 7.0012
LeftLeg  12.3272 -0.834177 -0.128258
LeftFoot  1.01634 -0.00508925 -0.039507
LeftToes  -23.1383 1.92152e-006 4.03786e-008
Spine  1.57927 1.84211 1.14363
Spine1  2.91331 3.68729 2.37643
RightShoulder  0.0823029 4.85661 7.65028
RightArm  -29.9436 -14.1969 72.7408
RightForeArm  30.7241 18 3.27778
RightHand  1.10952 -12.5819 -9.66035
LeftShoulder1  0.0469552 0.984209 -10.4274
LeftArm  -13.7195 13.3757 -71.2105
LeftForeArm  27.748 -14.5716 -2.62233
LeftHand  0.195632 5.65679 3.65616
HEad  -10.9745 27.7673 -8.03875
RightUpLeg  -7.06766 -9.98604 -2.31723
RightLeg  10.6246 -12.2602 -1.47612
RightFoot  0.433068 0.00269868 -0.0414404
RightToes  -30.736 -0.149022 -0.257049
486
root  0.252862 34.0759 20.8326 4.13548 51.7628 -1.69227
LeftUpLeg  -8.94899 3.16241 7.16933
LeftLeg  12.1703 -1.1322 -0.170375
LeftFoot  1.21279 -0.00443365 -0.0496955
LeftToes  -23.4342 1.92152e-006 4.03786e-008
Spine  1.62221 1.80979 1.23466
Spine1  3.00712 3.62803 2.5418
RightShoulder  0.0846267 4.85689 7.77667
RightArm  -29.8757 -14.4169 72.5074
RightForeArm  30.7676 17.882 3.25476
RightHand  1.1056 -12.5665 -9.64113
LeftShoulder1  0.0469552 0.953349 -10.3173
LeftArm  -13.5277 13.671 -71.5692
LeftForeArm  27.5713 -14.6739 -2.64162
LeftHand  0.194786 5.66007 3.59105
HEad  -11.2653 27.5892 -8.05976
RightUpLeg  -7.13701 -10.2761 -2.13596
RightLeg  10.9083 -12.519 -1.56916
RightFoot  0.152229 0.00123193 0.0188779
RightToes  -30.3352 -0.148055 -0.256112
487
root  0.205961 34.0721 20.876 4.09582 52.1853 -1.75488
LeftUpLeg  -9.03455 2.96482 7.31956
LeftLeg  12.0816 -1.33823 -0.198988
LeftFoot  1.37684 -0.00378561 -0.0597664
LeftToes  -23.6795 1.92152e-006 4.03786e-008
Spine  1.68676 1.80716 1.31238
Spine1  3.14203 3.62606 2.68062
RightShoulder  0.0885135 4.91355 7.89655
RightArm  -29.9539 -14.6402 72.1927
RightForeArm  30.8497 17.5919 3.19835
RightHand  1.11544 -12.6035 -9.70004
LeftShoulder1  0.0469552 0.946506 -10.1874
LeftArm  -13.2924 13.8717 -71.9502
LeftForeArm  27.2684 -14.8209 -2.6694
LeftHand  0.192879 5.70003 3.53556
HEad  -11.6212 27.4441 -8.0075
RightUpLeg  -7.23076 -10.3855 -1.98218
RightLeg  11.1879 -12.8002 -1.66672
RightFoot  -0.0629983 0.00038856 0.0664525
RightToes  -30.0928 -0.147224 -0.255306
488
root  0.169553 34.0661 20.9145 4.04054 52.5495 -1.87982
LeftUpLeg  -9.2061 2.86709 7.48328
LeftLeg  12.1517 -1.56957 -0.235109
LeftFoot  1.42078 -0.00317003 -0.0693329
LeftToes  -23.8431 1.92152e-006 4.03786e-008
Spine  1.73636 1.79859 1.3874
Spine1  3.2455 3.60995 2.81351
RightShoulder  0.0938372 5.04019 7.99328
RightArm  -30.3159 -14.9048 71.8456
RightForeArm  31.2159 17.0956 3.10209
RightHand  1.12216 -12.6114 -9.75395
LeftShoulder1  0.0469552 0.954621 -10.0959
LeftArm  -13.0188 14.0152 -72.2614
LeftForeArm  27.0662 -14.976 -2.6987
LeftHand  0.190513 5.69192 3.45674
HEad  -11.8444 27.3257 -7.92325
RightUpLeg  -7.34915 -10.6017 -1.79942
RightLeg  11.4327 -12.9492 -1.74155
RightFoot  -0.246421 -0.000581078 0.107647
RightToes  -29.8827 -0.146521 -0.254621
489
root  0.144151 34.0597 20.9487 4.00763 52.8325 -1.96136
LeftUpLeg  -9.32111 2.74955 7.60976
LeftLeg  12.1855 -1.72003 -0.258545
LeftFoot  1.46466 -0.00263491 -0.0776489
LeftToes  -24.0509 1.92152e-006 4.03786e-008
Spine  1.79058 1.80174 1.44479
Spine1  3.35545 3.60647 2.91985
RightShoulder  0.0982658 5.1002 8.06528
RightArm  -30.9328 -15.1308 71.5131
RightForeArm  31.7653 16.4748 2.98238
RightHand  1.14395 -12.7224 -9.85927
LeftShoulder1  0.0469552 0.94874 -10.1057
LeftArm  -12.7197 14.042 -72.4553
LeftForeArm  26.9502 -15.1093 -2.7239
LeftHand  0.185561 5.68122 3.36436
HEad  -11.9073 27.2255 -7.76648
RightUpLeg  -7.45394 -10.8218 -1.66691
RightLeg  11.6796 -13.0062 -1.80567
RightFoot  -0.456053 -0.00244211 0.155424
RightToes  -29.5701 -0.145932 -0.254046
